<?xml version="1.0" encoding="UTF-8"?>
<svg width="800" height="1200" xmlns="http://www.w3.org/2000/svg">
  <!-- Background gradient -->
  <defs>
    <linearGradient id="bgGradient" x1="0%" y1="0%" x2="0%" y2="100%">
      <stop offset="0%" style="stop-color:#1a1a2e;stop-opacity:1" />
      <stop offset="100%" style="stop-color:#16213e;stop-opacity:1" />
    </linearGradient>
    <linearGradient id="rustGradient" x1="0%" y1="0%" x2="100%" y2="0%">
      <stop offset="0%" style="stop-color:#CE422B;stop-opacity:1" />
      <stop offset="100%" style="stop-color:#f74c00;stop-opacity:1" />
    </linearGradient>
    <filter id="glow">
      <feGaussianBlur stdDeviation="3" result="coloredBlur"/>
      <feMerge>
        <feMergeNode in="coloredBlur"/>
        <feMergeNode in="SourceGraphic"/>
      </feMerge>
    </filter>
  </defs>

  <!-- Background -->
  <rect width="800" height="1200" fill="url(#bgGradient)"/>

  <!-- Decorative code lines (crosscutting concerns visualization) -->
  <g opacity="0.2">
    <line x1="0" y1="200" x2="800" y2="200" stroke="#ddd" stroke-width="1" stroke-dasharray="5,5"/>
    <line x1="0" y1="350" x2="800" y2="350" stroke="#ddd" stroke-width="1" stroke-dasharray="5,5"/>
    <line x1="0" y1="500" x2="800" y2="500" stroke="#ddd" stroke-width="1" stroke-dasharray="5,5"/>
    <line x1="0" y1="650" x2="800" y2="650" stroke="#ddd" stroke-width="1" stroke-dasharray="5,5"/>
    <line x1="0" y1="800" x2="800" y2="800" stroke="#ddd" stroke-width="1" stroke-dasharray="5,5"/>
  </g>

  <!-- Cartoon Crab (Ferris) with AOP superpowers -->
  <g transform="translate(400, 350)">
    <!-- Crab body -->
    <ellipse cx="0" cy="0" rx="80" ry="60" fill="url(#rustGradient)" filter="url(#glow)"/>

    <!-- Eyes (wearing cool glasses) -->
    <g>
      <!-- Sunglasses frame -->
      <rect x="-50" y="-20" width="35" height="25" rx="5" fill="#333" opacity="0.8"/>
      <rect x="15" y="-20" width="35" height="25" rx="5" fill="#333" opacity="0.8"/>
      <line x1="-15" y1="-7" x2="15" y2="-7" stroke="#333" stroke-width="3"/>
      <!-- Glare effect -->
      <ellipse cx="-32" cy="-12" rx="8" ry="6" fill="#4fc3f7" opacity="0.5"/>
      <ellipse cx="32" cy="-12" rx="8" ry="6" fill="#4fc3f7" opacity="0.5"/>
    </g>

    <!-- Smile -->
    <path d="M -20,10 Q 0,20 20,10" stroke="#fff" stroke-width="3" fill="none"/>

    <!-- Claws (holding "before" and "after" signs) -->
    <!-- Left claw -->
    <g transform="translate(-90, -10)">
      <ellipse cx="0" cy="0" rx="15" ry="20" fill="#CE422B"/>
      <path d="M -8,-15 L -12,-25 M 0,-18 L 0,-28 M 8,-15 L 12,-25" stroke="#8B0000" stroke-width="3" fill="none"/>
      <!-- "before" sign -->
      <rect x="-25" y="-60" width="50" height="30" fill="#FFD700" stroke="#333" stroke-width="2"/>
      <text x="0" y="-37" font-family="monospace" font-size="12" fill="#333" text-anchor="middle" font-weight="bold">before()</text>
    </g>

    <!-- Right claw -->
    <g transform="translate(90, -10)">
      <ellipse cx="0" cy="0" rx="15" ry="20" fill="#CE422B"/>
      <path d="M -8,-15 L -12,-25 M 0,-18 L 0,-28 M 8,-15 L 12,-25" stroke="#8B0000" stroke-width="3" fill="none"/>
      <!-- "after" sign -->
      <rect x="-25" y="-60" width="50" height="30" fill="#90EE90" stroke="#333" stroke-width="2"/>
      <text x="0" y="-37" font-family="monospace" font-size="12" fill="#333" text-anchor="middle" font-weight="bold">after()</text>
    </g>

    <!-- Legs -->
    <g>
      <ellipse cx="-50" cy="40" rx="12" ry="18" fill="#CE422B"/>
      <ellipse cx="-20" cy="50" rx="12" ry="18" fill="#CE422B"/>
      <ellipse cx="20" cy="50" rx="12" ry="18" fill="#CE422B"/>
      <ellipse cx="50" cy="40" rx="12" ry="18" fill="#CE422B"/>
    </g>

    <!-- Cape (superhero aspect) -->
    <path d="M -60,-30 Q -70,-50 -80,-80 L -85,-120 L -50,-90 L -40,-60 Z" fill="#9C27B0" opacity="0.8"/>
    <path d="M 60,-30 Q 70,-50 80,-80 L 85,-120 L 50,-90 L 40,-60 Z" fill="#9C27B0" opacity="0.8"/>

    <!-- Lightning bolt (AOP power) -->
    <path d="M -5,-80 L -15,-60 L -8,-60 L -18,-40 L -5,-50 L -2,-50 L -5,-80" fill="#FFD700" filter="url(#glow)"/>
  </g>

  <!-- Title -->
  <text x="400" y="120" font-family="'Courier New', monospace" font-size="72" fill="url(#rustGradient)" text-anchor="middle" font-weight="bold" filter="url(#glow)">
    aspect-rs
  </text>

  <!-- Subtitle -->
  <text x="400" y="170" font-family="Arial, sans-serif" font-size="28" fill="#ddd" text-anchor="middle">
    Aspect-Oriented Programming for Rust
  </text>

  <!-- Tagline -->
  <g>
    <rect x="150" y="580" width="500" height="80" fill="#2d2d44" stroke="#FFD700" stroke-width="3" rx="10"/>
    <text x="400" y="615" font-family="'Comic Sans MS', cursive" font-size="22" fill="#FFD700" text-anchor="middle" font-weight="bold">
      "Weaving Code Like a Boss!"
    </text>
    <text x="400" y="645" font-family="Arial, sans-serif" font-size="16" fill="#90EE90" text-anchor="middle" font-weight="bold">
      ✨ COMPLETE DOCUMENTATION NOW AVAILABLE ✨
    </text>
  </g>

  <!-- Feature bullets (humorous) -->
  <g transform="translate(100, 720)">
    <text x="0" y="0" font-family="Arial, sans-serif" font-size="20" fill="#4fc3f7">
      ⚡ Cross-cutting concerns? Cut them out!
    </text>
    <text x="0" y="35" font-family="Arial, sans-serif" font-size="20" fill="#4fc3f7">
      🦀 Ferris approved superpowers
    </text>
    <text x="0" y="70" font-family="Arial, sans-serif" font-size="20" fill="#4fc3f7">
      🚀 Faster than you can say "pointcut"
    </text>
    <text x="0" y="105" font-family="Arial, sans-serif" font-size="20" fill="#4fc3f7">
      🎯 Automatic weaving 
    </text>
  </g>

  <!-- Bottom tech specs -->
  <g transform="translate(400, 950)">
    <rect x="-200" y="-40" width="400" height="80" fill="#1a1a2e" stroke="#CE422B" stroke-width="2" rx="5"/>
    <text x="0" y="-10" font-family="'Courier New', monospace" font-size="16" fill="#CE422B" text-anchor="middle">
      11 Chapters • 27,208 Lines • 108+ Tests
    </text>
    <text x="0" y="15" font-family="'Courier New', monospace" font-size="16" fill="#CE422B" text-anchor="middle">
      8 Production Aspects • &lt;5% Overhead
    </text>
  </g>

  <!-- Version badge -->
  <g transform="translate(680, 1120)">
    <rect x="-80" y="-25" width="160" height="50" fill="#CE422B" rx="25"/>
    <text x="0" y="5" font-family="Arial, sans-serif" font-size="24" fill="white" text-anchor="middle" font-weight="bold">
      v0.1.0
    </text>
  </g>

  <!-- Footer -->
  <text x="400" y="1160" font-family="Arial, sans-serif" font-size="18" fill="#888" text-anchor="middle">
    yijunyu.github.io/aspect-rs
  </text>
</svg>
